<svg width="720" height="420" viewBox="0 0 720 420" fill="none" xmlns="http://www.w3.org/2000/svg">
<rect width="720" height="420" rx="36" fill="#071827"/>
<circle cx="112" cy="92" r="82" fill="#22D3EE" fill-opacity="0.09"/><circle cx="624" cy="340" r="110" fill="#2DD4BF" fill-opacity="0.08"/>
<rect x="74" y="112" width="190" height="198" rx="28" fill="#0E2233" stroke="#1F3B4D" stroke-width="2"/>
<ellipse cx="169" cy="154" rx="62" ry="24" fill="#22D3EE" fill-opacity="0.2" stroke="#22D3EE" stroke-width="2"/>
<path d="M107 154V222C107 235 135 246 169 246C203 246 231 235 231 222V154" stroke="#67E8F9" stroke-width="4"/>
<ellipse cx="169" cy="222" rx="62" ry="24" stroke="#67E8F9" stroke-width="4"/>
<rect x="456" y="92" width="190" height="238" rx="28" fill="#0E2233" stroke="#1F3B4D" stroke-width="2"/>
<rect x="490" y="126" width="122" height="36" rx="12" fill="#22D3EE" fill-opacity="0.16"/><path d="M506 144H596" stroke="#67E8F9" stroke-width="8" stroke-linecap="round"/>
<rect x="490" y="184" width="122" height="36" rx="12" fill="#34D399" fill-opacity="0.13"/><path d="M506 202H574" stroke="#6EE7B7" stroke-width="8" stroke-linecap="round"/>
<rect x="490" y="242" width="122" height="36" rx="12" fill="#A78BFA" fill-opacity="0.14"/><path d="M506 260H586" stroke="#C4B5FD" stroke-width="8" stroke-linecap="round"/>
<path d="M286 176H430" stroke="#38BDF8" stroke-width="10" stroke-linecap="round"/><path d="M406 154L434 176L406 198" stroke="#38BDF8" stroke-width="8" stroke-linecap="round" stroke-linejoin="round"/>
<path d="M430 246H286" stroke="#34D399" stroke-width="10" stroke-linecap="round"/><path d="M310 224L282 246L310 268" stroke="#34D399" stroke-width="8" stroke-linecap="round" stroke-linejoin="round"/>
</svg>